PathFileType	4	(x/y/z)	S04_PSF_T13.trc
DataRate	CameraRate	NumFrames	NumMarkers	Units	OrigDataRate	OrigDataStartFrame	OrigNumFrames
240	240	6	51	mm	240	325	432
Frame#	Time	Sternum			R.Acromium			L.Acromium			Top.Head			R.ASIS			L.ASIS			R.PSIS			L.PSIS			R.Great.Tro			L.Great.Tro			R.Iliac.Crest			L.Iliac.Crest			V.Sacral			R.Thigh.Upper.Post			R.Thigh.Lower.Ant			R.Thigh.Lower.Post			R.Thigh.Upper.Ant			R.Knee.Lat			R.Knee.Med			R.Shank.Upper.Post			R.Shank.Lower.Ant			R.Shank.Lower.Post			R.Shank.Upper.Ant			R.Ankle.Lat			R.Ankle.Med			R.Heel.Upper			R.Heel.Med			R.Heel.Lat			R.Toe.Lat			R.Toe.Med			R.Toe.Tip			L.Thigh.Upper.Post			L.Thigh.Lower.Ant			L.Thigh.Lower.Post			L.Thigh.Upper.Ant			L.Knee.Lat			L.Knee.Med			L.Shank.Upper.Post			L.Shank.Lower.Ant			L.Shank.Lower.Post			L.Shank.Upper.Ant			L.Ankle.Lat			L.Ankle.Med			L.Heel.Upper			L.Heel.Med			L.Heel.Lat			L.Toe.Lat			L.Toe.Med			L.Toe.Tip			Cervical.Spine			Back			
		X1	Y1	Z1	X2	Y2	Z2	X3	Y3	Z3	X4	Y4	Z4	X5	Y5	Z5	X6	Y6	Z6	X7	Y7	Z7	X8	Y8	Z8	X9	Y9	Z9	X10	Y10	Z10	X11	Y11	Z11	X12	Y12	Z12	X13	Y13	Z13	X14	Y14	Z14	X15	Y15	Z15	X16	Y16	Z16	X17	Y17	Z17	X18	Y18	Z18	X19	Y19	Z19	X20	Y20	Z20	X21	Y21	Z21	X22	Y22	Z22	X23	Y23	Z23	X24	Y24	Z24	X25	Y25	Z25	X26	Y26	Z26	X27	Y27	Z27	X28	Y28	Z28	X29	Y29	Z29	X30	Y30	Z30	X31	Y31	Z31	X32	Y32	Z32	X33	Y33	Z33	X34	Y34	Z34	X35	Y35	Z35	X36	Y36	Z36	X37	Y37	Z37	X38	Y38	Z38	X39	Y39	Z39	X40	Y40	Z40	X41	Y41	Z41	X42	Y42	Z42	X43	Y43	Z43	X44	Y44	Z44	X45	Y45	Z45	X46	Y46	Z46	X47	Y47	Z47	X48	Y48	Z48	X49	Y49	Z49	X50	Y50	Z50	X51	Y51	Z51	

325	1.35	217.29	1278.4	248.04	91.999	1507.2	423.11	75.399	1485	72.615	125.65	1830.1	229.29	181.33	986.42	392.57	197.92	1015.4	144.6	-22.804	1026.4	278.83	-10.846	1035.1	198.13	87.375	903.19	444.71	94.271	927.82	68.321	94.335	1083.6	428.61	96.072	1091.7	94.036	-38.689	989.63	234.71	118.62	644.25	440.08	207.68	570.84	421.09	130.82	554.64	427.17	200.83	680.52	437.99	149.85	489.77	422.04	150.18	487.3	290.77	-57.288	392.45	407.61	-70.279	288.67	372.23	-109.77	346.82	392.9	-19.89	336.94	395.46	-190.47	266.53	371.7	-155.57	249.19	287.51	-244.47	293.57	306.13	-258.14	267.43	273.5	-273.29	273.12	337.79	-190.51	134.62	405.79	-147.97	101.15	297.68	-103.03	65.283	354.59	121.7	686.07	87.792	218.51	608.41	104.82	146.24	602.46	106.07	190.27	691.06	82.966	202.18	516.12	122.99	192.89	509.74	245.98	123.03	331.98	122.84	195.44	248.43	134.83	131.18	255.04	134.17	187.72	324.11	123.45	170.03	99.371	156.58	174.12	111.19	248.87	96.318	70.39	201.12	102.41	46.535	236.3	100.27	41.891	174.36	285	42.789	139.45	313.6	51.206	255.94	371.24	63.239	207.94	33.594	1550.2	253.28	-42.985	1289.6	240.61
326	1.3542	222.42	1279.2	248.08	96.875	1508.1	422.89	81.038	1485.9	72.387	131.14	1830.9	229.16	186.53	987.51	392.32	202.93	1016	144.3	-17.67	1027.3	278.89	-5.723	1036	198.22	92.986	904.3	444.77	98.862	928.46	68.285	99.378	1084.6	428.47	101.16	1092.5	93.881	-33.583	990.51	234.79	127.11	645.61	440.34	216.85	573.14	421.06	140.21	556.12	427.41	208.91	682.72	438.01	159.89	491.49	422.12	160.11	489.06	290.86	-46.402	392.49	407.6	-58.425	288.5	372.69	-98.442	346.33	392.98	-8.5347	337.25	395.74	-178.38	265.11	371.96	-143.33	247.96	287.86	-232.92	291.1	306.3	-246.17	264.57	273.8	-261.37	270.37	338.1	-176.4	133.59	406.79	-133.62	100.12	298.78	-88.037	65.333	355.82	124.7	686.69	87.833	220.96	608.24	104.81	148.64	602.89	105.99	193.32	691.15	82.994	203.83	516.04	122.96	194.46	509.66	245.95	123.86	332.21	122.93	196.01	248.4	134.85	131.79	255.22	134.3	188.54	324.11	123.47	170.13	99.489	156.73	174.25	111.21	249	96.338	70.484	201.21	102.42	46.576	236.33	100.3	42.024	174.41	285.03	42.764	139.44	313.68	50.989	255.96	371.3	62.956	207.92	38.903	1551.1	252.94	-37.793	1290.5	240.08
327	1.3583	227.54	1280	248.14	101.74	1509	422.68	86.667	1486.8	72.167	136.64	1831.7	229.05	191.73	988.6	392.06	207.93	1016.6	144	-12.538	1028.2	278.98	-0.60629	1036.8	198.34	98.605	905.42	444.84	103.42	929.09	68.262	104.42	1085.6	428.34	106.24	1093.2	93.731	-28.484	991.38	234.89	135.56	647	440.62	225.96	575.46	421.01	149.54	557.65	427.66	216.94	684.95	438.02	169.87	493.23	422.19	169.92	490.85	290.96	-35.51	392.37	407.62	-46.466	288.18	373.17	-87.065	345.64	393.09	2.8732	337.44	396.03	-166.15	263.41	372.26	-130.96	246.53	288.24	-221.25	288.32	306.53	-234.04	261.42	274.17	-249.3	267.27	338.47	-162.04	132.29	407.74	-119.01	98.944	299.81	-72.747	65.238	356.95	127.66	687.32	87.883	223.34	608.06	104.79	150.99	603.32	105.9	196.32	691.24	83.015	205.42	515.96	122.93	196.02	509.59	245.92	124.65	332.44	123.02	196.55	248.38	134.85	132.37	255.41	134.42	189.32	324.11	123.48	170.22	99.604	156.88	174.38	111.23	249.12	96.356	70.578	201.3	102.42	46.619	236.37	100.34	42.155	174.45	285.06	42.74	139.43	313.76	50.788	255.97	371.37	62.687	207.9	44.204	1551.9	252.61	-32.604	1291.5	239.56
328	1.3625	232.66	1280.7	248.19	106.61	1509.9	422.47	92.288	1487.7	71.954	142.13	1832.5	228.95	196.94	989.68	391.79	212.91	1017.2	143.69	-7.4089	1029.1	279.08	4.5011	1037.6	198.48	104.23	906.54	444.92	107.95	929.71	68.253	109.45	1086.5	428.21	111.3	1094	93.588	-23.392	992.24	235.03	143.98	648.42	440.92	235	577.81	420.95	158.82	559.21	427.93	224.93	687.18	438.01	179.76	495.01	422.26	179.62	492.67	291.06	-24.614	392.1	407.68	-34.406	287.71	373.67	-75.634	344.76	393.23	14.331	337.53	396.34	-153.77	261.45	372.61	-118.44	244.91	288.63	-209.45	285.25	306.84	-221.78	258	274.6	-237.08	263.86	338.9	-147.43	130.73	408.66	-104.15	97.617	300.77	-57.179	65.009	357.97	130.58	687.96	87.942	225.67	607.89	104.75	153.27	603.75	105.83	199.27	691.34	83.03	206.95	515.89	122.88	197.57	509.53	245.89	125.39	332.67	123.1	197.05	248.37	134.84	132.9	255.6	134.54	190.05	324.13	123.48	170.31	99.718	157.02	174.49	111.25	249.24	96.373	70.673	201.38	102.42	46.665	236.4	100.38	42.283	174.49	285.09	42.715	139.42	313.83	50.6	255.98	371.43	62.432	207.88	49.5	1552.8	252.29	-27.419	1292.3	239.04
329	1.3667	237.78	1281.5	248.25	111.47	1510.7	422.26	97.9	1488.5	71.749	147.63	1833.3	228.88	202.15	990.74	391.53	217.86	1017.8	143.38	-2.2844	1029.9	279.21	9.5966	1038.4	198.63	109.87	907.67	445.01	112.44	930.31	68.257	114.48	1087.4	428.1	116.35	1094.8	93.449	-18.306	993.08	235.18	152.36	649.86	441.25	243.97	580.16	420.86	168.04	560.81	428.21	232.88	689.43	437.98	189.58	496.8	422.32	189.21	494.51	291.16	-13.713	391.68	407.76	-22.248	287.12	374.17	-64.15	343.69	393.39	25.837	337.52	396.65	-141.25	259.24	373	-105.8	243.09	289.04	-197.53	281.9	307.2	-209.36	254.31	275.08	-224.7	260.13	339.38	-132.59	128.94	409.54	-89.033	96.157	301.67	-41.349	64.657	358.91	133.46	688.6	88.01	227.93	607.71	104.71	155.51	604.18	105.76	202.17	691.43	83.039	208.43	515.82	122.83	199.14	509.48	245.86	126.1	332.91	123.19	197.51	248.37	134.83	133.41	255.8	134.66	190.74	324.15	123.47	170.4	99.828	157.15	174.6	111.28	249.34	96.388	70.767	201.46	102.42	46.712	236.43	100.41	42.409	174.54	285.12	42.691	139.41	313.9	50.425	255.99	371.49	62.191	207.85	54.79	1553.6	251.98	-22.237	1293.2	238.53
330	1.3708	242.9	1282.2	248.31	116.32	1511.6	422.05	103.51	1489.4	71.552	153.12	1834	228.81	207.36	991.79	391.25	222.8	1018.4	143.07	2.8352	1030.8	279.36	14.678	1039.1	198.81	115.52	908.78	445.11	116.91	930.88	68.274	119.52	1088.4	427.99	121.4	1095.5	93.316	-13.229	993.9	235.36	160.71	651.32	441.59	252.86	582.52	420.75	177.21	562.43	428.5	240.79	691.67	437.94	199.33	498.6	422.38	198.68	496.36	291.26	-2.807	391.12	407.88	-9.9932	286.39	374.68	-52.614	342.44	393.59	37.39	337.42	396.98	-128.59	256.79	373.42	-93.016	241.1	289.46	-185.47	278.29	307.61	-196.8	250.37	275.61	-212.17	256.12	339.91	-117.53	126.93	410.39	-73.681	94.574	302.52	-25.274	64.197	359.78	136.29	689.24	88.089	230.14	607.53	104.66	157.71	604.61	105.7	205.02	691.51	83.042	209.86	515.75	122.77	200.74	509.45	245.82	126.77	333.16	123.29	197.95	248.38	134.8	133.89	256.01	134.78	191.4	324.18	123.46	170.48	99.936	157.28	174.7	111.3	249.44	96.402	70.861	201.54	102.41	46.761	236.46	100.44	42.533	174.58	285.15	42.668	139.41	313.97	50.262	255.99	371.55	61.962	207.82	60.076	1554.4	251.67	-17.055	1294.1	238.02
